<svg width="54" height="31" viewBox="0 0 54 31" fill="none" xmlns="http://www.w3.org/2000/svg">
<path d="M5.2162 23.04H9.1402C9.9082 23.04 10.4482 22.884 10.7602 22.572C11.0962 22.236 11.2642 21.684 11.2642 20.916V9.936C11.2642 9.168 11.0962 8.628 10.7602 8.316C10.4482 7.98 9.9082 7.812 9.1402 7.812H5.2162C4.9522 7.812 4.8202 7.944 4.8202 8.208V22.644C4.8202 22.908 4.9522 23.04 5.2162 23.04ZM0.248203 26.244V4.608C0.248203 4.104 0.500203 3.852 1.0042 3.852H9.8962C11.7682 3.852 13.2202 4.368 14.2522 5.4C15.3082 6.408 15.8362 7.848 15.8362 9.72V21.132C15.8362 23.004 15.3082 24.456 14.2522 25.488C13.2202 26.496 11.7682 27 9.8962 27H1.0042C0.500203 27 0.248203 26.748 0.248203 26.244Z" fill="#E84118"/>
<path d="M25.9066 24.696H29.5786C31.5946 24.696 32.6026 23.652 32.6026 21.564V9.288C32.6026 7.2 31.5946 6.156 29.5786 6.156H25.9066C23.9146 6.156 22.9186 7.2 22.9186 9.288V21.564C22.9186 23.652 23.9146 24.696 25.9066 24.696ZM29.9026 27H25.6186C23.9626 27 22.6546 26.532 21.6946 25.596C20.7586 24.66 20.2906 23.352 20.2906 21.672V9.18C20.2906 7.5 20.7586 6.192 21.6946 5.256C22.6546 4.32 23.9626 3.852 25.6186 3.852H29.9026C31.5586 3.852 32.8546 4.332 33.7906 5.292C34.7506 6.228 35.2306 7.524 35.2306 9.18V21.672C35.2306 23.328 34.7506 24.636 33.7906 25.596C32.8546 26.532 31.5586 27 29.9026 27ZM47.8211 30.528H46.5971C46.2611 30.528 46.0931 30.36 46.0931 30.024V27H45.2291C43.6211 27 42.3371 26.52 41.3771 25.56C40.4411 24.6 39.9731 23.304 39.9731 21.672V20.664C39.9731 20.328 40.1291 20.16 40.4411 20.16H42.0971C42.4091 20.16 42.5651 20.328 42.5651 20.664V21.456C42.5651 23.616 43.6331 24.696 45.7691 24.696H48.0371C50.1731 24.696 51.2411 23.592 51.2411 21.384V19.692C51.2411 18.564 50.9291 17.772 50.3051 17.316C49.6811 16.86 48.7331 16.608 47.4611 16.56L45.4811 16.524C43.7531 16.452 42.3971 16.032 41.4131 15.264C40.4291 14.496 39.9371 13.116 39.9371 11.124V9.144C39.9371 7.488 40.4051 6.192 41.3411 5.256C42.3011 4.296 43.5971 3.816 45.2291 3.816H46.0931V0.755999C46.0931 0.419999 46.2611 0.251999 46.5971 0.251999H47.8211C48.1571 0.251999 48.3251 0.419999 48.3251 0.755999V3.816H48.5771C50.1371 3.816 51.3851 4.296 52.3211 5.256C53.2571 6.216 53.7251 7.512 53.7251 9.144V10.044C53.7251 10.404 53.5571 10.584 53.2211 10.584H51.6011C51.2651 10.584 51.0971 10.404 51.0971 10.044V9.36C51.0971 7.2 50.0291 6.12 47.8931 6.12H45.7691C43.6331 6.12 42.5651 7.248 42.5651 9.504V11.196C42.5651 12.276 42.8651 13.032 43.4651 13.464C44.0891 13.872 45.0371 14.1 46.3091 14.148L48.5411 14.22C50.1731 14.292 51.4691 14.724 52.4291 15.516C53.3891 16.308 53.8691 17.664 53.8691 19.584V21.672C53.8691 23.328 53.3891 24.636 52.4291 25.596C51.4931 26.532 50.2091 27 48.5771 27H48.3251V30.024C48.3251 30.36 48.1571 30.528 47.8211 30.528Z" fill="black"/>
</svg>
